# xmcd
#
# Track frame offsets: 
#        150
#        11673
#        25797
#        40094
#        59311
#        72075
#        84858
#        99838
#        112362
#        125227
#        141608
#        153502
#        167827
#        181685
#        212000
#        225097
#        238303
#        245573
#        261055
#        272613
#        285984
#        296681
#        309548
#        322629
#        336989
#
# Disc length: 4667 seconds
#
# Revision: 0
# Processed by: cddbd v1.5.2PL0 Copyright (c) Steve Scherf et al.
# Submitted via: ExactAudioCopyFreeDBPlugin 1.0
#
DISCID=61123919
DTITLE=Various Artist - VA - Really the Blues - Disc 19
DYEAR=1900
DGENRE=40s
TTITLE0=Lil Green - Give Your Mama One Smile
TTITLE1=Walter Brown and Jay McShann - New Confessin' Blues
TTITLE2=Snub Mosely - Snub's Blues
TTITLE3=Chu Berry - Gee Baby Ain't I Good to You
TTITLE4=Rosetta Tharpe - Rock Me
TTITLE5=Yank Rachel and Sonny Boy Williamson - Peachtree Blues
TTITLE6=Raymond Scott - Evening Star
TTITLE7=Golden Gate Quartet - Jezebel
TTITLE8=Tony Hollins - Cross Cut Saw
TTITLE9=Art Tatum - Toledo Blues
TTITLE10=Golden Gate Quartet - Anyhow
TTITLE11=Ella Fitzgerald - I Must Have That Man
TTITLE12=Muddy Waters - I Bes Satisfied
TTITLE13=Son House with Willie Brown - Walking Blues
TTITLE14=Hank Penny - Lonesome Train Blues
TTITLE15=Jay McShann with Charlie Parker - Hootie Blues
TTITLE16=Allison Mathis - Mama You Going to Quit Me
TTITLE17=Muddy Waters - Country Blues
TTITLE18=Light Crust Doughboys - Sluefoot on the Levee
TTITLE19=Dr. Clayton with Blind John Davis - Confessin' the Blues
TTITLE20=Chappy and His Orchestra - Daddy
TTITLE21=Four Clefs - I Like Pie, I Like Cake
TTITLE22=Robert Petway - Catfish Blues
TTITLE23=Big Maceo with Tampa Red - Ramblin' Mind Blues
TTITLE24=T-Bone Walker - Mean Old World
EXTD=
EXTT0=
EXTT1=
EXTT2=
EXTT3=
EXTT4=
EXTT5=
EXTT6=
EXTT7=
EXTT8=
EXTT9=
EXTT10=
EXTT11=
EXTT12=
EXTT13=
EXTT14=
EXTT15=
EXTT16=
EXTT17=
EXTT18=
EXTT19=
EXTT20=
EXTT21=
EXTT22=
EXTT23=
EXTT24=
PLAYORDER=
